HIERARCHY
ROOT Hips
{
  OFFSET 5.80788e-005 67.184 3.4734
  CHANNELS 6 Xposition Yposition Zposition Zrotation Xrotation Yrotation
  JOINT Chest
  {
    OFFSET 0 8.7983 -4.7612
    CHANNELS 3 Zrotation Xrotation Yrotation
    JOINT Chest2
    {
      OFFSET 0 8.0291 0.4195
      CHANNELS 3 Zrotation Xrotation Yrotation
      JOINT Chest3
      {
        OFFSET 0 9.9351 -2.2114
        CHANNELS 3 Zrotation Xrotation Yrotation
        JOINT Neck
        {
          OFFSET 0 22.3885 -0.4656
          CHANNELS 3 Zrotation Xrotation Yrotation
          JOINT Head
          {
            OFFSET -0.0001 12.643 3.4389
            CHANNELS 3 Zrotation Xrotation Yrotation
            End Site
            {
              OFFSET 0.0001 17.6655 0.5274
            }
          }
        }
        JOINT LeftCollar
        {
          OFFSET 2.2603 21.606 7.4023
          CHANNELS 3 Zrotation Xrotation Yrotation
          JOINT LeftShoulder
          {
            OFFSET 13.5163 -1.1332 -5.0146
            CHANNELS 3 Zrotation Xrotation Yrotation
            JOINT LeftElbow
            {
              OFFSET -0.0995 -28.05 -0.2431
              CHANNELS 3 Zrotation Xrotation Yrotation
              JOINT LeftWrist
              {
                OFFSET 0.0679 -23.3996 -0.1402
                CHANNELS 3 Zrotation Xrotation Yrotation
                JOINT LeftFinger1
                {
                  OFFSET 0.7932 -9.069 2.5189
                  CHANNELS 3 Zrotation Xrotation Yrotation
                  JOINT LeftFinger11
                  {
                    OFFSET -0.8272 -3.3923 0.5977
                    CHANNELS 3 Zrotation Xrotation Yrotation
                    JOINT LeftFinger12
                    {
                      OFFSET -0.5649 -2.3158 0.4082
                      CHANNELS 3 Zrotation Xrotation Yrotation
                      End Site
                      {
                        OFFSET -0.4919 -1.6479 0.2673
                      }
                    }
                  }
                }
                JOINT LeftFinger2
                {
                  OFFSET 0.9159 -9.2044 0.2193
                  CHANNELS 3 Zrotation Xrotation Yrotation
                  JOINT LeftFinger21
                  {
                    OFFSET 0.0117 -4.1944 -0.0248
                    CHANNELS 3 Zrotation Xrotation Yrotation
                    JOINT LeftFinger22
                    {
                      OFFSET 0.0071 -2.3249 -0.0142
                      CHANNELS 3 Zrotation Xrotation Yrotation
                      End Site
                      {
                        OFFSET -0.1475 -2.0882 0.0028
                      }
                    }
                  }
                }
                JOINT LeftFinger3
                {
                  OFFSET 0.6113 -8.7231 -2.0637
                  CHANNELS 3 Zrotation Xrotation Yrotation
                  JOINT LeftFinger31
                  {
                    OFFSET -0.1927 -3.8059 -0.2383
                    CHANNELS 3 Zrotation Xrotation Yrotation
                    JOINT LeftFinger32
                    {
                      OFFSET -0.1091 -2.1688 -0.1362
                      CHANNELS 3 Zrotation Xrotation Yrotation
                      End Site
                      {
                        OFFSET -0.2358 -1.9176 -0.0906
                      }
                    }
                  }
                }
                JOINT LeftFinger4
                {
                  OFFSET -0.6151 -8.0947 -3.5641
                  CHANNELS 3 Zrotation Xrotation Yrotation
                  JOINT LeftFinger41
                  {
                    OFFSET -0.4882 -2.341 -0.6462
                    CHANNELS 3 Zrotation Xrotation Yrotation
                    JOINT LeftFinger42
                    {
                      OFFSET -0.3575 -1.7167 -0.4742
                      CHANNELS 3 Zrotation Xrotation Yrotation
                      End Site
                      {
                        OFFSET -0.4187 -1.5237 -0.3496
                      }
                    }
                  }
                }
                JOINT LeftFinger0
                {
                  OFFSET -1.42 -1.8761 1.4223
                  CHANNELS 3 Zrotation Xrotation Yrotation
                  JOINT LeftFinger01
                  {
                    OFFSET -1.1471 -3.4929 2.6334
                    CHANNELS 3 Zrotation Xrotation Yrotation
                    JOINT LeftFinger02
                    {
                      OFFSET -0.823 -2.3 1.6571
                      CHANNELS 3 Zrotation Xrotation Yrotation
                      End Site
                      {
                        OFFSET -0.5822 -1.6914 1.1582
                      }
                    }
                  }
                }
              }
            }
          }
        }
        JOINT RightCollar
        {
          OFFSET -2.2603 21.606 7.4023
          CHANNELS 3 Zrotation Xrotation Yrotation
          JOINT RightShoulder
          {
            OFFSET -13.5187 -1.1334 -5.0155
            CHANNELS 3 Zrotation Xrotation Yrotation
            JOINT RightElbow
            {
              OFFSET 0.0994 -28.0499 -0.2431
              CHANNELS 3 Zrotation Xrotation Yrotation
              JOINT RightWrist
              {
                OFFSET -0.0679 -23.3996 -0.1402
                CHANNELS 3 Zrotation Xrotation Yrotation
                JOINT RightFinger1
                {
                  OFFSET -0.7932 -9.0691 2.5189
                  CHANNELS 3 Zrotation Xrotation Yrotation
                  JOINT RightFinger11
                  {
                    OFFSET 0.8272 -3.3923 0.5977
                    CHANNELS 3 Zrotation Xrotation Yrotation
                    JOINT RightFinger12
                    {
                      OFFSET 0.565 -2.3158 0.4082
                      CHANNELS 3 Zrotation Xrotation Yrotation
                      End Site
                      {
                        OFFSET 0.4919 -1.6479 0.2673
                      }
                    }
                  }
                }
                JOINT RightFinger2
                {
                  OFFSET -0.916 -9.2044 0.2193
                  CHANNELS 3 Zrotation Xrotation Yrotation
                  JOINT RightFinger21
                  {
                    OFFSET -0.0117 -4.1944 -0.0248
                    CHANNELS 3 Zrotation Xrotation Yrotation
                    JOINT RightFinger22
                    {
                      OFFSET -0.0071 -2.3249 -0.0142
                      CHANNELS 3 Zrotation Xrotation Yrotation
                      End Site
                      {
                        OFFSET 0.1475 -2.0882 0.0028
                      }
                    }
                  }
                }
                JOINT RightFinger3
                {
                  OFFSET -0.6113 -8.7231 -2.0637
                  CHANNELS 3 Zrotation Xrotation Yrotation
                  JOINT RightFinger31
                  {
                    OFFSET 0.1927 -3.8059 -0.2383
                    CHANNELS 3 Zrotation Xrotation Yrotation
                    JOINT RightFinger32
                    {
                      OFFSET 0.1091 -2.1688 -0.1362
                      CHANNELS 3 Zrotation Xrotation Yrotation
                      End Site
                      {
                        OFFSET 0.2358 -1.9176 -0.0906
                      }
                    }
                  }
                }
                JOINT RightFinger4
                {
                  OFFSET 0.6151 -8.0947 -3.564
                  CHANNELS 3 Zrotation Xrotation Yrotation
                  JOINT RightFinger41
                  {
                    OFFSET 0.4882 -2.341 -0.6462
                    CHANNELS 3 Zrotation Xrotation Yrotation
                    JOINT RightFinger42
                    {
                      OFFSET 0.3574 -1.7166 -0.4742
                      CHANNELS 3 Zrotation Xrotation Yrotation
                      End Site
                      {
                        OFFSET 0.4187 -1.5237 -0.3496
                      }
                    }
                  }
                }
                JOINT RightFinger0
                {
                  OFFSET 1.4199 -1.8761 1.4221
                  CHANNELS 3 Zrotation Xrotation Yrotation
                  JOINT RightFinger01
                  {
                    OFFSET 1.1472 -3.4929 2.6336
                    CHANNELS 3 Zrotation Xrotation Yrotation
                    JOINT RightFinger02
                    {
                      OFFSET 0.8229 -2.3 1.6571
                      CHANNELS 3 Zrotation Xrotation Yrotation
                      End Site
                      {
                        OFFSET 0.5822 -1.6914 1.1582
                      }
                    }
                  }
                }
              }
            }
          }
        }
      }
    }
  }
  JOINT RightHip
  {
    OFFSET -9.412 3.9771 -0.7758
    CHANNELS 3 Zrotation Xrotation Yrotation
    JOINT RightKnee
    {
      OFFSET -0.7531 -40.938 0
      CHANNELS 3 Zrotation Xrotation Yrotation
      JOINT RightAnkle
      {
        OFFSET 0 -40.1986 0
        CHANNELS 3 Zrotation Xrotation Yrotation
        JOINT RightToe
        {
          OFFSET 0 -4.4182 9.239
          CHANNELS 3 Zrotation Xrotation Yrotation
          End Site
          {
            OFFSET 0 0 6.1981
          }
        }
      }
    }
  }
  JOINT LeftHip
  {
    OFFSET 9.4119 3.9773 -0.7758
    CHANNELS 3 Zrotation Xrotation Yrotation
    JOINT LeftKnee
    {
      OFFSET 0.7532 -40.9383 0
      CHANNELS 3 Zrotation Xrotation Yrotation
      JOINT LeftAnkle
      {
        OFFSET 0 -40.1986 0
        CHANNELS 3 Zrotation Xrotation Yrotation
        JOINT LeftToe
        {
          OFFSET 0 -4.4182 9.239
          CHANNELS 3 Zrotation Xrotation Yrotation
          End Site
          {
            OFFSET 0 0 6.1981
          }
        }
      }
    }
  }
}
MOTION
Frames:	4
Frame Time:	0.0333333
5.80788e-005 67.184 3.4734 0 0 -0 0 0 -0 0 0 -0 0 0 -0 0 0 -0.00657023 0 0 -0 0 0 -12.5014 88.1196 14.2451 10.6914 -0.00160068 -0.00239207 0.000740045 -8.4365e-005 7.00714e-005 -9.52055e-007 9.93923e-017 -1.98785e-016 -1.59028e-015 9.93923e-017 -5.96354e-016 -1.59028e-015 -9.93923e-017 -5.96354e-016 -1.59028e-015 9.93923e-017 -1.98785e-016 -1.59028e-015 -0.0128176 0.00232552 8.52707e-005 9.93923e-017 5.96354e-016 -0 9.93923e-017 -1.98785e-016 -1.59028e-015 -0.0160551 0.00299681 0.000857156 -2.48481e-016 0 3.18055e-015 9.93923e-017 -1.98785e-016 -1.59028e-015 -0.0125865 0.0031206 0.00282719 0 1.98785e-016 -0 9.93923e-017 -1.98785e-016 -1.59028e-015 9.93923e-017 -5.96354e-016 -1.59028e-015 -9.93923e-017 -5.96354e-016 -1.59028e-015 -0.865644 0.16582 7.03859 -88.0329 10.2057 -10.5567 0.0015593 -0.00248883 -0.000788628 7.87605e-005 4.10553e-005 1.24965e-005 -3.97569e-016 -7.95139e-016 3.18055e-015 -1.98785e-016 -3.97569e-016 3.18055e-015 -1.98785e-016 0 3.18055e-015 -3.97569e-016 -7.95139e-016 3.18055e-015 0.0129473 0.00231697 -8.70038e-005 9.93923e-017 -7.95139e-016 1.59028e-015 -3.97569e-016 -7.95139e-016 3.18055e-015 0.0163314 0.00303369 -0.000872333 3.97569e-016 7.95139e-016 -3.18055e-015 -3.97569e-016 -7.95139e-016 3.18055e-015 0.0145763 0.00367772 -0.00326275 9.93923e-017 -3.97569e-016 -0 -3.97569e-016 -7.95139e-016 3.18055e-015 -1.98785e-016 -3.97569e-016 3.18055e-015 -1.98785e-016 0 3.18055e-015 3.42485 1.36937 -0.0640303 0.000136572 0.69354 0.00145564 -3.42573 -2.06297 -0.0607933 -3.19502e-024 0 -1.48106e-024 -3.42498 1.36123 0.0639712 -6.769e-005 0.712612 -0.0012277 3.42582 -2.07388 0.0612819 2.55305e-023 0 -2.31416e-026 
-0.636181 60.2449 1.52201 -4.52292e-007 8.99857 4.07715e-008 -0.625506 -1.37152 -0.247496 -1.25747 -2.74025 -0.510178 -1.25747 -2.74025 -0.510178 0.110225 0.148736 -0.00655077 -3.34107e-007 0.176601 -1.74853e-007 3.29644 10.3679 -15.9748 37.1542 -5.67761 21.3179 -76.9615 -43.2906 -55.9478 -6.38761 10.6731 -1.47204 1.02627e-006 -1.75364e-006 -1.0906e-006 9.54166e-015 -3.18055e-015 -3.18055e-015 -3.18055e-015 -6.36111e-015 -9.54166e-015 1.02627e-006 -1.75364e-006 -1.0906e-006 -0.0128739 0.00233234 8.77017e-005 8.14608e-007 -9.87936e-007 2.73344e-006 1.02627e-006 -1.75364e-006 -1.0906e-006 -0.0160528 0.00299013 0.000853778 1.89564e-006 -3.16022e-006 1.41395e-006 1.02627e-006 -1.75364e-006 -1.0906e-006 -0.0126036 0.00313221 0.00282884 -5.406e-007 1.14058e-006 6.59764e-007 1.02627e-006 -1.75364e-006 -1.0906e-006 9.54166e-015 -3.18055e-015 -3.18055e-015 -3.18055e-015 -6.36111e-015 -9.54166e-015 -4.51748 10.1129 10.174 -36.6653 -7.76601 -17.1563 75.5846 -43.8629 55.1919 8.11152 10.0306 1.99004 2.65493e-006 -1.33711e-006 7.63122e-007 6.36111e-015 -3.18055e-015 -0 6.36111e-015 -4.77083e-015 -3.18055e-015 2.65493e-006 -1.33711e-006 7.63122e-007 0.0129278 0.00230999 -8.1264e-005 -4.87014e-007 2.82131e-006 4.6151e-007 2.65493e-006 -1.33711e-006 7.63122e-007 0.0163132 0.00303296 -0.000871612 4.59405e-006 1.18723e-006 2.25244e-006 2.65493e-006 -1.33711e-006 7.63122e-007 0.0145818 0.00369016 -0.00326764 7.34515e-007 1.39307e-006 2.67677e-006 2.65493e-006 -1.33711e-006 7.63122e-007 6.36111e-015 -3.18055e-015 -0 6.36111e-015 -4.77083e-015 -3.18055e-015 -25.3465 -38.0933 -35.1808 -147.552 44.8063 148.063 10.9865 22.2275 13.4194 -1.81111e-006 2.68825e-007 9.39653e-008 21.9114 -36.2246 33.7628 147.861 44.4966 -148.284 -9.0173 22.7584 -13.0387 -4.18077e-007 3.13891e-006 -3.77493e-007 
-0.636146 60.2976 2.03231 -6.40142e-008 7.83739 -1.75871e-008 -0.628458 -0.98591 -0.244247 -1.26139 -1.96908 -0.499405 -1.26139 -1.96908 -0.499406 0.144854 0.194943 -0.00651479 2.31484e-007 0.231433 -3.08244e-007 3.46896 9.52152 -16.1945 37.1542 -5.67758 21.318 -76.2896 -43.2721 -55.4541 -6.45218 10.3977 -1.20457 -8.10538e-007 3.94359e-006 -2.74017e-006 8.10538e-007 6.60635e-007 2.74017e-006 -4.87419e-006 1.12509e-006 -1.52937e-006 -8.10538e-007 3.94359e-006 -2.74017e-006 -0.012828 0.00233431 9.14285e-005 -9.57082e-006 5.81855e-006 -3.71866e-006 -8.10538e-007 3.94359e-006 -2.74017e-006 -0.0160139 0.00300125 0.000863543 -1.13489e-005 -1.07752e-005 -5.58156e-006 -8.10538e-007 3.94359e-006 -2.74017e-006 -0.0125796 0.00312282 0.00281985 -1.31824e-006 3.60028e-006 2.19537e-006 -8.10538e-007 3.94359e-006 -2.74017e-006 8.10538e-007 6.60635e-007 2.74017e-006 -4.87419e-006 1.12509e-006 -1.52937e-006 -4.68052 9.27381 10.4059 -36.6653 -7.76599 -17.1563 74.9435 -43.8354 54.7187 8.1249 9.78349 1.72269 -6.36111e-015 -1.11319e-014 -3.18055e-015 -9.54166e-015 -4.77083e-015 -0 -6.34171e-008 1.89937e-005 -3.16814e-006 -6.36111e-015 -1.11319e-014 -3.18055e-015 0.0129988 0.00233532 -8.82523e-005 4.09248e-006 -6.93741e-007 2.71797e-006 -6.36111e-015 -1.11319e-014 -3.18055e-015 0.0163088 0.00304922 -0.000876765 -7.29821e-007 2.01549e-007 -2.6831e-006 -6.36111e-015 -1.11319e-014 -3.18055e-015 0.0145767 0.00368723 -0.00326695 2.64988e-006 1.43815e-006 7.66786e-007 -6.36111e-015 -1.11319e-014 -3.18055e-015 -9.54166e-015 -4.77083e-015 -0 -6.34171e-008 1.89937e-005 -3.16814e-006 -25.5021 -36.3448 -34.9565 -147.121 45.1921 147.806 10.4511 22.159 13.6865 2.18188e-006 -1.12605e-006 2.90715e-006 22.0896 -34.4656 33.5789 147.418 44.8998 -148.022 -8.52875 22.695 -13.2721 -3.18055e-015 0 -0 
-0.636092 60.3536 2.54179 -6.92755e-010 6.67428 5.96046e-009 -0.631077 -0.595222 -0.240816 -1.26475 -1.18775 -0.488214 -1.26476 -1.18775 -0.488217 0.17899 0.240558 -0.00666399 8.79803e-007 0.286267 4.85402e-007 3.63748 8.67307 -16.4115 37.1543 -5.67761 21.318 -75.618 -43.2493 -54.9606 -6.51543 10.1219 -0.937564 3.18055e-015 4.77083e-015 -0 3.18055e-015 1.59028e-015 -0 -6.36111e-015 -1.59028e-015 -0 3.18055e-015 4.77083e-015 -0 -0.0128305 0.00231834 6.65588e-005 3.18055e-015 4.77083e-015 3.18055e-015 3.18055e-015 4.77083e-015 -0 -0.0160075 0.00298852 0.000854512 1.63203e-006 -2.44723e-007 -1.97116e-006 3.18055e-015 4.77083e-015 -0 -0.0125976 0.0031289 0.00283279 -1.82975e-006 2.34676e-006 -1.64319e-006 3.18055e-015 4.77083e-015 -0 3.18055e-015 1.59028e-015 -0 -6.36111e-015 -1.59028e-015 -0 -4.84035 8.43273 10.6349 -36.6653 -7.76597 -17.1563 74.3029 -43.804 54.2461 8.13711 9.53634 1.45549 -3.53113e-031 3.18055e-015 6.36111e-015 3.18055e-015 -3.18055e-015 6.36111e-015 -0 0 3.18055e-015 -3.53113e-031 3.18055e-015 6.36111e-015 0.0129461 0.00231482 -9.31586e-005 -6.36111e-015 -3.18055e-015 -1.27222e-014 -3.53113e-031 3.18055e-015 6.36111e-015 0.0163642 0.0030537 -0.000876116 -3.18055e-015 3.18055e-015 3.18055e-015 -3.53113e-031 3.18055e-015 6.36111e-015 0.0145375 0.00366869 -0.00325339 -8.78704e-007 1.3694e-005 -9.09889e-006 -3.53113e-031 3.18055e-015 6.36111e-015 3.18055e-015 -3.18055e-015 6.36111e-015 -0 0 3.18055e-015 -25.6603 -34.5898 -34.7298 -146.685 45.5764 147.543 9.9164 22.0877 13.9523 -7.19044e-007 -7.55119e-006 1.54871e-006 22.2681 -32.7006 33.3909 146.97 45.3012 -147.753 -8.04088 22.6293 -13.5043 -3.25425e-006 -1.08491e-006 -8.14074e-007 
